<svg version="1" xmlns="http://www.w3.org/2000/svg" width="6046.667" height="6046.667" viewBox="0 0 4535.000000 4535.000000"><path d="M2148 673.9c0 1.2 229.4 617.4 231.4 621.6 1.3 2.6 1.5-8.7 1.5-91.8l.1-94.8 257.8.4c258.6.4 267.8.6 326.7 4.2 174.4 11 306.3 46.1 393 104.6 90.5 61.1 138.8 152.1 147.6 278.4 1.5 21.6.6 79-1.5 101.3-6.8 69.5-20.8 121.4-46.4 171.6-24.3 47.7-60.4 88.2-105.2 118-82.4 54.9-201.5 87-360.5 97.1-44.9 2.8-84.9 3.5-219.9 3.5h-134.8l.6 2.2c.3 1.3 35.6 96.3 78.4 211.3l77.9 209 86.9.6c84.3.6 105.8 1.3 149.9 4.4 231.3 16.6 390.4 82.6 477.1 198 35.2 46.8 59.7 103 72.3 166 7.1 35.4 10.1 64.5 10.8 107 2.5 143.2-30.1 256.6-98.2 341.4-63.5 79.3-167.7 136.4-300.9 165.2-10.5 2.3-21.4 4.6-24.3 5.3l-5.1 1.1 80.5 216c44.2 118.8 80.6 216.1 80.8 216.3.4.5 26.9-4.3 51.8-9.4 188.9-38.5 346.5-109.9 472.7-214.3 29.9-24.8 66.3-59.7 90.1-86.6 118.4-133.4 183.7-294.6 199.4-492.2 5.1-64.8 4-143.6-3-208.3-16.9-156.3-67.1-282.9-152.3-384-21.3-25.2-58-60.1-86.8-82.6-98.9-77-230.8-131.7-395.9-164.2l-9-1.8-.3-10.6-.3-10.6 9.3-1.7c18.1-3.2 50.6-10.8 71.3-16.6 97.7-27.2 177.6-68 248-126.5 16.7-13.9 56-53.2 69.9-69.9 106.4-128 158.6-286.8 158.6-482.6.1-271.1-94.4-470.3-284-599.1-164.6-111.9-422.2-176.7-768-193.3-17.3-.8-43.6-2-58.5-2.7-35.5-1.5-789.5-2.4-789.5-.9zM1861.7 1123.6c-2.6 4.3-2.7 33.8-2.7 710.6V2532h469.9l-1.8-5.3c-1.1-2.8-68-197.4-148.9-432.2-80.9-234.9-150.7-437.1-155.2-449.5-36.8-101.3-120.8-372.5-153.8-496.4-3.8-14.2-7.2-25.5-7.5-25zM1859.2 3418.2l.3 438.3 460.8.3c438.6.2 460.8.1 460.3-1.5-.4-1-35.8-99.7-78.9-219.3l-78.2-217.5-121.3-.3-121.2-.2v-438h-522l.2 438.2z"/></svg>